<svg width="160.000000" height="60.000000" viewBox="0 0 160 60" fill="none" xmlns="http://www.w3.org/2000/svg" xmlns:xlink="http://www.w3.org/1999/xlink">
	<desc>
			Created with Pixso.
	</desc>
	<defs/>
	<path id="Vector" d="M7.53 0.67L14.77 0.67L14.77 4.07L12.37 4.07L12.37 52.23L10.21 52.23L10.21 4.07L7.53 4.07L7.53 0.67Z" fill="#FFFFFF" fill-opacity="1.000000" fill-rule="nonzero"/>
	<path id="Vector" d="M25.08 7.76C25.12 7.76 25.14 8.07 25.14 8.7C25.14 9.32 25.14 9.95 25.13 10.57L25.13 11.48C24.36 11.48 23.68 11.79 23.09 12.42C22.5 13.02 21.93 14.13 21.37 15.73L21.37 52.23L19.2 52.23L19.2 8.29L21.37 8.29L21.37 13.18C21.62 11.46 22.06 10.13 22.69 9.19C23.33 8.24 24.13 7.76 25.08 7.76Z" fill="#FFFFFF" fill-opacity="1.000000" fill-rule="nonzero"/>
	<path id="Vector" d="M29.7 8.29L31.89 8.29L31.89 52.23L29.7 52.23L29.7 8.29ZM29.7 0.02L31.87 0.02L31.87 4.24L29.7 4.24L29.7 0.02Z" fill="#FFFFFF" fill-opacity="1.000000" fill-rule="nonzero"/>
	<path id="Vector" d="M44.41 21.15C44.41 17.71 44.34 15.57 44.19 14.73C44.06 13.87 43.89 13.14 43.7 12.53C43.5 11.93 43.18 11.63 42.74 11.63C42.29 11.63 41.96 11.68 41.75 11.8C41.22 12.09 40.84 12.94 40.6 14.35C40.35 15.74 40.23 18.02 40.23 21.2L40.23 38.66C40.23 42.4 40.38 45.03 40.67 46.57C40.97 48.1 41.53 48.86 42.36 48.86C43.18 48.86 43.73 48.1 44 46.57C44.28 45.05 44.41 42.37 44.41 38.52L44.41 21.15ZM40.23 11.65C40.75 9.19 41.71 7.96 43.13 7.96C44.12 7.96 44.86 8.63 45.36 9.96C45.86 11.26 46.19 12.96 46.35 15.05C46.5 17.12 46.58 19.62 46.58 22.55L46.58 38.31C46.58 38.37 46.58 38.44 46.58 38.52C46.58 44.05 46.22 47.8 45.5 49.8C44.78 51.77 43.8 52.76 42.56 52.76C42.07 52.76 41.6 52.4 41.16 51.7C40.74 50.98 40.43 50.1 40.23 49.06L40.23 59.99L38.06 59.99L38.06 8.29L40.23 8.29L40.23 11.65Z" fill="#FFFFFF" fill-opacity="1.000000" fill-rule="nonzero"/>
	<path id="Vector" d="M61.03 8.81L61.05 10.01C61.05 12.12 61.59 15.87 62.68 21.26C63.43 19.39 64 17.55 64.4 15.76C64.8 13.94 65.01 11.92 65.01 9.69C65.01 7.47 64.89 5.88 64.64 4.95C64.4 3.99 63.83 3.51 62.93 3.51C61.75 3.51 61.13 4.87 61.06 7.58C61.05 8.01 61.04 8.3 61.03 8.43C61.03 8.55 61.03 8.68 61.03 8.81ZM67.29 41.54C68.67 47.36 69.51 50.92 69.8 52.23L67.99 52.23C67.74 51.02 67.22 48.81 66.45 45.61C65.96 47.81 65.46 49.4 64.95 50.35C64.43 51.31 63.92 51.96 63.41 52.29C62.9 52.64 62.32 52.81 61.66 52.81C60.34 52.81 59.27 51.9 58.46 50.06C57.64 48.22 57.23 45.71 57.23 42.5C57.23 39.3 57.39 36.93 57.71 35.38C58.04 33.84 58.35 32.48 58.65 31.31C58.94 30.14 59.84 27.84 61.35 24.4C59.73 17.09 58.92 12.28 58.92 9.96C58.92 3.33 60.31 0.02 63.09 0.02C64.71 0.02 65.77 0.88 66.27 2.6C66.79 4.32 67.04 6.72 67.04 9.81C67.04 12.89 66.71 15.59 66.03 17.89C65.36 20.18 64.51 22.59 63.49 25.13C64.18 28.33 65.11 32.36 66.27 37.2C67.06 33.88 67.92 31.11 68.86 28.88L69.87 32.01C69 34.2 68.14 37.38 67.29 41.54ZM65.37 41.21C63.95 35.47 62.91 31.17 62.24 28.29C61.43 30.48 60.76 32.7 60.23 34.94C59.71 37.19 59.44 39.76 59.43 42.65C59.43 46.98 60.26 49.15 61.92 49.15C62.83 49.15 63.6 48.08 64.22 45.93C64.53 44.82 64.91 43.24 65.37 41.21Z" fill="#FFFFFF" fill-opacity="1.000000" fill-rule="nonzero"/>
	<path id="Vector" d="M90.28 0.67L92.71 0.67L92.71 52.23L90.74 52.23L90.74 30.14L91.08 9.37L87.42 51.12L85.36 51.12L81.57 9.37L81.91 30.14L81.91 52.23L79.93 52.23L79.93 0.67L82.36 0.67L86.39 43.97L90.28 0.67Z" fill="#FFFFFF" fill-opacity="1.000000" fill-rule="nonzero"/>
	<path id="Vector" d="M98.89 8.29L101.07 8.29L101.07 52.23L98.89 52.23L98.89 8.29ZM98.89 0.02L101.05 0.02L101.05 4.24L98.89 4.24L98.89 0.02Z" fill="#FFFFFF" fill-opacity="1.000000" fill-rule="nonzero"/>
	<path id="Vector" d="M109.42 12.59C109.61 11.28 110.04 10.15 110.7 9.19C111.37 8.22 112.15 7.73 113.06 7.73C113.96 7.73 114.7 8.48 115.28 9.98C115.87 11.49 116.16 13.74 116.16 16.75L116.16 52.23L113.99 52.23L113.99 16.4C113.99 14.7 113.79 13.48 113.41 12.74C113.03 11.98 112.52 11.6 111.88 11.6C110.24 11.6 109.42 13.23 109.42 16.49L109.42 52.23L107.25 52.23L107.25 8.29L109.42 8.29L109.42 12.59Z" fill="#FFFFFF" fill-opacity="1.000000" fill-rule="nonzero"/>
	<path id="Vector" d="M128.08 21.85C128.08 18.08 127.94 15.44 127.65 13.94C127.37 12.42 126.81 11.65 125.99 11.65C125.16 11.65 124.61 12.44 124.33 14C124.05 15.54 123.91 18.23 123.91 22.05L123.91 39.46C123.91 43.48 124.06 46.06 124.37 47.19C124.69 48.32 125.16 48.89 125.78 48.89C126.41 48.89 126.85 48.66 127.11 48.22C127.38 47.75 127.61 46.97 127.79 45.9C127.99 44.81 128.08 42.68 128.08 39.51L128.08 21.85ZM128.07 0L130.25 0L130.25 52.23L128.07 52.23L128.07 48.89C127.57 51.33 126.6 52.55 125.17 52.55C123.55 52.53 122.52 50.59 122.09 46.72C121.84 44.59 121.72 41.73 121.72 38.14L121.72 22.7C121.72 16.8 122.07 12.84 122.77 10.81C123.48 8.77 124.47 7.76 125.76 7.76C126.25 7.76 126.71 8.12 127.12 8.84C127.55 9.55 127.87 10.4 128.07 11.42L128.07 0Z" fill="#FFFFFF" fill-opacity="1.000000" fill-rule="nonzero"/>
	<path id="Vector" d="M153.38 14.09L159.7 26.82C160.09 27.6 160.09 28.86 159.7 29.64L153.38 42.37C152.99 43.15 152.36 43.15 151.97 42.37C151.59 41.59 151.59 40.32 151.97 39.54L156.6 30.23L139.13 30.23L139.13 26.23L156.6 26.23L151.97 16.92C151.59 16.14 151.59 14.87 151.97 14.09C152.36 13.31 152.99 13.31 153.38 14.09Z" fill="#EFC224" fill-opacity="1.000000" fill-rule="evenodd"/>
	<path id="Vector" d="M3.97 26.23L0 26.23L0 30.23L3.97 30.23L3.97 26.23Z" fill="#EFC224" fill-opacity="1.000000" fill-rule="nonzero"/>
</svg>
